<svg width="797" height="354" viewBox="0 0 797 354" fill="none" xmlns="http://www.w3.org/2000/svg">
<path d="M6.79994 235.2C4.79994 235.2 3.19994 234.4 1.99994 232.8C0.799945 231.2 0.999944 229.6 2.59994 228L174.8 2.39997C175.6 1.59997 176.8 1.19997 178.4 1.19997C179.6 1.19997 180.8 1.59997 182 2.39997C183.2 2.79998 183.8 3.59998 183.8 4.79998V334.8C183.8 339.2 182.2 342 179 343.2L159.8 352.8C157.4 353.6 156.2 354 156.2 354C155 354 154.4 352.4 154.4 349.2V45L166.4 37.2L31.3999 213.6C30.1999 214.8 29.7999 215.8 30.1999 216.6C30.9999 217.4 32.3999 217.8 34.3999 217.8C78.7999 217.8 133.8 217 199.4 215.4L237.2 214.2C238 214.2 238.6 215.6 239 218.4C239.8 220.8 240.2 223.6 240.2 226.8C240.2 230 239.8 233 239 235.8C238.6 238.2 238 239.4 237.2 239.4C206 237.8 174.8 236.8 143.6 236.4C112.8 235.6 67.1999 235.2 6.79994 235.2ZM404.117 247.8C380.917 247.8 359.917 242.4 341.117 231.6C322.717 220.8 308.317 206 297.917 187.2C287.517 168 282.317 146.4 282.317 122.4C282.317 98.8 287.517 77.8 297.917 59.4C308.317 41 322.717 26.6 341.117 16.2C359.917 5.79998 381.117 0.599976 404.717 0.599976C427.917 0.599976 448.517 5.99998 466.517 16.8C484.517 27.2 498.517 41.8 508.517 60.6C518.917 79.4 524.117 100.6 524.117 124.2C524.117 147.8 518.917 169 508.517 187.8C498.517 206.6 484.317 221.4 465.917 232.2C447.917 242.6 427.317 247.8 404.117 247.8ZM410.717 240.6C436.317 240.6 455.517 230.8 468.317 211.2C481.517 191.6 488.117 165 488.117 131.4C488.117 91.4 479.517 60.8 462.317 39.6C445.117 18.4 423.717 7.79998 398.117 7.79998C372.917 7.79998 353.117 18 338.717 38.4C324.717 58.8 317.717 85.2 317.717 117.6C317.717 140.8 321.517 161.8 329.117 180.6C336.717 199.4 347.517 214.2 361.517 225C375.517 235.4 391.917 240.6 410.717 240.6ZM562.855 235.2C560.855 235.2 559.255 234.4 558.055 232.8C556.855 231.2 557.055 229.6 558.655 228L730.855 2.39997C731.655 1.59997 732.855 1.19997 734.455 1.19997C735.655 1.19997 736.855 1.59997 738.055 2.39997C739.255 2.79998 739.855 3.59998 739.855 4.79998V334.8C739.855 339.2 738.255 342 735.055 343.2L715.855 352.8C713.455 353.6 712.255 354 712.255 354C711.055 354 710.455 352.4 710.455 349.2V45L722.455 37.2L587.455 213.6C586.255 214.8 585.855 215.8 586.255 216.6C587.055 217.4 588.455 217.8 590.455 217.8C634.855 217.8 689.855 217 755.455 215.4L793.255 214.2C794.055 214.2 794.655 215.6 795.055 218.4C795.855 220.8 796.255 223.6 796.255 226.8C796.255 230 795.855 233 795.055 235.8C794.655 238.2 794.055 239.4 793.255 239.4C762.055 237.8 730.855 236.8 699.655 236.4C668.855 235.6 623.255 235.2 562.855 235.2Z" fill="#2E2E2E"/>
<path d="M354.56 147.72C351.56 147.72 348.86 147 346.46 145.56C344.06 144.08 342.16 142.08 340.76 139.56C339.36 137 338.66 134.14 338.66 130.98C338.66 127.82 339.34 125 340.7 122.52C342.06 120 343.9 118.02 346.22 116.58C348.54 115.14 351.14 114.42 354.02 114.42C356.22 114.42 358.2 114.82 359.96 115.62C361.76 116.42 363.3 117.54 364.58 118.98C365.9 120.38 366.9 122 367.58 123.84C368.3 125.64 368.66 127.54 368.66 129.54C368.66 129.94 368.64 130.36 368.6 130.8C368.56 131.24 368.5 131.7 368.42 132.18H340.76V128.88H366.38L364.76 130.14C365 127.82 364.66 125.74 363.74 123.9C362.82 122.02 361.5 120.54 359.78 119.46C358.1 118.34 356.18 117.78 354.02 117.78C351.86 117.78 349.88 118.36 348.08 119.52C346.28 120.64 344.86 122.2 343.82 124.2C342.78 126.16 342.3 128.44 342.38 131.04C342.3 133.64 342.8 135.94 343.88 137.94C344.96 139.94 346.44 141.52 348.32 142.68C350.2 143.8 352.28 144.36 354.56 144.36C356.88 144.36 358.9 143.82 360.62 142.74C362.34 141.62 363.74 140.14 364.82 138.3L367.88 139.92C367.16 141.4 366.14 142.74 364.82 143.94C363.5 145.1 361.96 146.02 360.2 146.7C358.48 147.38 356.6 147.72 354.56 147.72ZM377.246 147V115.14H380.846V121.08L380.186 120.54C380.866 118.74 382.026 117.32 383.666 116.28C385.346 115.24 387.326 114.72 389.606 114.72H391.646V118.32H389.186C386.586 118.32 384.546 119.16 383.066 120.84C381.586 122.48 380.846 124.7 380.846 127.5V147H377.246ZM397.578 147V115.14H401.178V121.08L400.518 120.54C401.198 118.74 402.358 117.32 403.998 116.28C405.678 115.24 407.658 114.72 409.938 114.72H411.978V118.32H409.518C406.918 118.32 404.878 119.16 403.398 120.84C401.918 122.48 401.178 124.7 401.178 127.5V147H397.578ZM432.73 147.72C429.69 147.72 426.95 147 424.51 145.56C422.07 144.12 420.13 142.14 418.69 139.62C417.29 137.06 416.59 134.2 416.59 131.04C416.59 127.88 417.29 125.04 418.69 122.52C420.13 120 422.05 118.02 424.45 116.58C426.89 115.14 429.65 114.42 432.73 114.42C435.77 114.42 438.51 115.14 440.95 116.58C443.39 118.02 445.31 120 446.71 122.52C448.11 125 448.81 127.84 448.81 131.04C448.81 134.24 448.09 137.1 446.65 139.62C445.21 142.14 443.27 144.12 440.83 145.56C438.43 147 435.73 147.72 432.73 147.72ZM432.73 144.18C435.01 144.18 437.07 143.62 438.91 142.5C440.79 141.34 442.27 139.76 443.35 137.76C444.43 135.76 444.97 133.52 444.97 131.04C444.97 128.56 444.43 126.34 443.35 124.38C442.27 122.42 440.81 120.86 438.97 119.7C437.13 118.54 435.05 117.96 432.73 117.96C430.41 117.96 428.31 118.54 426.43 119.7C424.59 120.82 423.13 122.38 422.05 124.38C420.97 126.34 420.43 128.56 420.43 131.04C420.43 133.52 420.97 135.76 422.05 137.76C423.17 139.76 424.65 141.34 426.49 142.5C428.33 143.62 430.41 144.18 432.73 144.18ZM457.46 147V115.14H461.06V121.08L460.4 120.54C461.08 118.74 462.24 117.32 463.88 116.28C465.56 115.24 467.54 114.72 469.82 114.72H471.86V118.32H469.4C466.8 118.32 464.76 119.16 463.28 120.84C461.8 122.48 461.06 124.7 461.06 127.5V147H457.46Z" fill="black"/>
</svg>
