<svg width="42" height="38" viewBox="0 0 42 38" fill="none" xmlns="http://www.w3.org/2000/svg">
<g clip-path="url(#clip0_198_1212)">
<mask id="mask0_198_1212" style="mask-type:luminance" maskUnits="userSpaceOnUse" x="0" y="0" width="42" height="38">
<path d="M3.93271 3.71802C8.31361 -0.478429 15.2674 -0.328728 19.464 4.05203L21.361 6.03221L22.6191 4.82701C27.1814 0.456523 34.4233 0.612535 38.7939 5.17483C43.1642 9.73713 43.0089 16.9784 38.4467 21.3489L21.324 37.7522L3.59938 19.2501C-0.597411 14.8692 -0.448163 7.91481 3.93271 3.71802Z" fill="white"/>
</mask>
<g mask="url(#mask0_198_1212)">
<path d="M21.361 6.03221L19.9168 7.41575L21.3003 8.85998L22.7446 7.47644L21.361 6.03221ZM21.324 37.7522L19.8798 39.1357L21.2633 40.58L22.7075 39.1964L21.324 37.7522ZM3.93271 3.71802L5.3162 5.16231C8.89938 1.72999 14.5871 1.85234 18.0198 5.43557L19.464 4.05203L20.9083 2.66849C15.9476 -2.5098 7.72784 -2.68685 2.54923 2.27373L3.93271 3.71802ZM19.464 4.05203L18.0198 5.43557L19.9168 7.41575L21.361 6.03221L22.8052 4.64866L20.9083 2.66849L19.464 4.05203ZM21.361 6.03221L22.7446 7.47644L24.0026 6.27125L22.6191 4.82701L21.2356 3.38275L19.9775 4.58797L21.361 6.03221ZM22.6191 4.82701L24.0026 6.27125C27.7672 2.66497 33.743 2.79357 37.3496 6.55837L38.7939 5.17483L40.2381 3.79132C35.1035 -1.56846 26.5957 -1.75194 21.2356 3.38275L22.6191 4.82701ZM38.7939 5.17483L37.3496 6.55837C40.9559 10.323 40.8277 16.2983 37.0632 19.9047L38.4467 21.3489L39.8303 22.7932C45.19 17.6585 45.3725 9.15123 40.2381 3.79132L38.7939 5.17483ZM38.4467 21.3489L37.0632 19.9047L19.9405 36.3079L21.324 37.7522L22.7075 39.1964L39.8303 22.7932L38.4467 21.3489ZM21.324 37.7522L22.7682 36.3686L5.04361 17.8665L3.59938 19.2501L2.15515 20.6336L19.8798 39.1357L21.324 37.7522ZM3.59938 19.2501L5.04361 17.8665C1.61093 14.2833 1.73295 8.59499 5.3162 5.16231L3.93271 3.71802L2.54923 2.27373C-2.62927 7.23463 -2.80575 15.4551 2.15515 20.6336L3.59938 19.2501Z" fill="#8F8F8F" fill-opacity="0.8"/>
</g>
</g>
<defs>
<clipPath id="clip0_198_1212">
<rect width="42" height="38" fill="white"/>
</clipPath>
</defs>
</svg>
