<svg width="42" height="38" viewBox="0 0 42 38" fill="none" xmlns="http://www.w3.org/2000/svg">
<mask id="path-1-inside-1_71_1077" fill="white">
<path d="M3.93269 3.71729C8.31359 -0.479162 15.2674 -0.329462 19.464 4.0513L21.361 6.03147L22.6191 4.82628C27.1814 0.455789 34.4233 0.611801 38.7939 5.17409C43.1642 9.7364 43.0089 16.9776 38.4467 21.3482L21.324 37.7514L3.59936 19.2493C-0.597428 14.8685 -0.44818 7.91408 3.93269 3.71729Z"/>
</mask>
<path d="M3.93269 3.71729L2.54921 2.273L2.54915 2.27306L3.93269 3.71729ZM19.464 4.0513L20.9083 2.66775L19.464 4.0513ZM21.361 6.03147L19.9168 7.41502L21.3003 8.85925L22.7446 7.47571L21.361 6.03147ZM22.6191 4.82628L21.2356 3.38202L21.2355 3.38205L22.6191 4.82628ZM38.7939 5.17409L40.2381 3.79059L40.2381 3.79055L38.7939 5.17409ZM38.4467 21.3482L39.8303 22.7924L39.8303 22.7924L38.4467 21.3482ZM21.324 37.7514L19.8798 39.135L21.2633 40.5792L22.7075 39.1957L21.324 37.7514ZM3.59936 19.2493L5.04359 17.8658L3.59936 19.2493ZM3.93269 3.71729L5.31618 5.16158C8.89936 1.72926 14.5871 1.8516 18.0198 5.43484L19.464 4.0513L20.9083 2.66775C15.9476 -2.51053 7.72782 -2.68758 2.54921 2.273L3.93269 3.71729ZM19.464 4.0513L18.0198 5.43484L19.9168 7.41502L21.361 6.03147L22.8052 4.64793L20.9083 2.66775L19.464 4.0513ZM21.361 6.03147L22.7446 7.47571L24.0026 6.27051L22.6191 4.82628L21.2355 3.38205L19.9775 4.58724L21.361 6.03147ZM22.6191 4.82628L24.0026 6.27053C27.7672 2.66425 33.743 2.79284 37.3496 6.55764L38.7939 5.17409L40.2381 3.79055C35.1035 -1.56923 26.5957 -1.75267 21.2356 3.38202L22.6191 4.82628ZM38.7939 5.17409L37.3496 6.5576C40.9559 10.3223 40.8277 16.2975 37.0632 19.904L38.4467 21.3482L39.8303 22.7924C45.19 17.6577 45.3725 9.1505 40.2381 3.79059L38.7939 5.17409ZM38.4467 21.3482L37.0632 19.904L19.9405 36.3072L21.324 37.7514L22.7075 39.1957L39.8303 22.7924L38.4467 21.3482ZM21.324 37.7514L22.7682 36.3679L5.04359 17.8658L3.59936 19.2493L2.15513 20.6329L19.8798 39.135L21.324 37.7514ZM3.59936 19.2493L5.04359 17.8658C1.61091 14.2826 1.73299 8.5942 5.31624 5.16152L3.93269 3.71729L2.54915 2.27306C-2.62935 7.23396 -2.80577 15.4544 2.15513 20.6329L3.59936 19.2493Z" fill="#2E2E2E" mask="url(#path-1-inside-1_71_1077)"/>
</svg>
